HIERARCHY
ROOT pelvis
{
	OFFSET 0.000000 0.000000 0.679986
	CHANNELS 6 Xposition Yposition Zposition Xrotation Yrotation Zrotation
	JOINT spine
	{
		OFFSET 0.000000 0.000000 0.000000
		CHANNELS 6 Xposition Yposition Zposition Xrotation Yrotation Zrotation
		JOINT spine.001
		{
			OFFSET 0.000000 -0.012678 0.241904
			CHANNELS 3 Xrotation Yrotation Zrotation
			JOINT neck
			{
				OFFSET 0.000000 0.029521 0.240431
				CHANNELS 6 Xposition Yposition Zposition Xrotation Yrotation Zrotation
				JOINT face
				{
					OFFSET 0.000000 0.003156 0.180812
					CHANNELS 6 Xposition Yposition Zposition Xrotation Yrotation Zrotation
					End Site
					{
						OFFSET 0.000000 -0.023094 -0.007106
					}
				}
			}
			JOINT shoulder.L
			{
				OFFSET 0.000000 0.029521 0.240431
				CHANNELS 6 Xposition Yposition Zposition Yrotation Xrotation Zrotation
				JOINT upper_arm.L
				{
					OFFSET 0.145035 0.000000 0.000000
					CHANNELS 6 Xposition Yposition Zposition Xrotation Yrotation Zrotation
					JOINT forearm.L
					{
						OFFSET 0.246650 0.000105 0.000870
						CHANNELS 6 Xposition Yposition Zposition Xrotation Yrotation Zrotation
						End Site
						{
							OFFSET 0.221395 -0.003768 -0.001200
						}
					}
				}
			}
			JOINT shoulder.R
			{
				OFFSET 0.000000 0.029521 0.240431
				CHANNELS 6 Xposition Yposition Zposition Yrotation Xrotation Zrotation
				JOINT upper_arm.R
				{
					OFFSET -0.145035 0.000000 0.000000
					CHANNELS 6 Xposition Yposition Zposition Xrotation Yrotation Zrotation
					JOINT forearm.R
					{
						OFFSET -0.244526 0.000105 0.000870
						CHANNELS 6 Xposition Yposition Zposition Xrotation Yrotation Zrotation
						End Site
						{
							OFFSET -0.221103 -0.003763 -0.001200
						}
					}
				}
			}
		}
	}
	JOINT pelvis.L
	{
		OFFSET 0.000000 0.000000 0.000000
		CHANNELS 6 Xposition Yposition Zposition Yrotation Xrotation Zrotation
		End Site
		{
			OFFSET 0.090921 0.000000 0.000000
		}
	}
	JOINT pelvis.R
	{
		OFFSET 0.000000 0.000000 0.000000
		CHANNELS 6 Xposition Yposition Zposition Yrotation Xrotation Zrotation
		End Site
		{
			OFFSET -0.090921 0.000000 0.000000
		}
	}
	JOINT thigh.L
	{
		OFFSET 0.090921 0.000000 0.000000
		CHANNELS 6 Xposition Yposition Zposition Xrotation Yrotation Zrotation
		JOINT shin.L
		{
			OFFSET 0.016946 0.000000 -0.323345
			CHANNELS 6 Xposition Yposition Zposition Xrotation Yrotation Zrotation
			JOINT foot.L
			{
				OFFSET 0.015355 0.000000 -0.292990
				CHANNELS 3 Xrotation Yrotation Zrotation
				End Site
				{
					OFFSET 0.013738 -0.140079 -0.058821
				}
			}
			JOINT heel.02.L
			{
				OFFSET 0.015355 0.000000 -0.292990
				CHANNELS 3 Xrotation Yrotation Zrotation
				End Site
				{
					OFFSET 0.075119 0.031301 -0.058955
				}
			}
		}
	}
	JOINT thigh.R
	{
		OFFSET -0.090921 0.000000 0.000000
		CHANNELS 6 Xposition Yposition Zposition Xrotation Yrotation Zrotation
		JOINT shin.R
		{
			OFFSET -0.016998 0.000000 -0.324336
			CHANNELS 6 Xposition Yposition Zposition Xrotation Yrotation Zrotation
			JOINT foot.R
			{
				OFFSET -0.015517 0.000000 -0.296075
				CHANNELS 3 Xrotation Yrotation Zrotation
				End Site
				{
					OFFSET -0.014273 -0.145529 -0.061110
				}
			}
			JOINT heel.02.R
			{
				OFFSET -0.015517 0.000000 -0.296075
				CHANNELS 3 Xrotation Yrotation Zrotation
				End Site
				{
					OFFSET -0.070971 0.031301 -0.055085
				}
			}
		}
	}
}
MOTION
Frames: 4
Frame Time: 0.041667
-0.033938 -0.010927 0.671062 -0.000000 0.000000 1.227069 0.000000 0.000000 0.000000 -8.135875 -3.526743 -0.437411 9.923370 1.035934 8.468554 0.000000 0.029521 0.240430 12.740137 2.500783 2.528685 0.000000 0.003156 0.180812 2.441769 -0.000000 -0.000001 0.000000 0.029521 0.240431 -4.274644 0.019570 0.524383 0.145036 -0.000000 0.000000 10.366713 82.460689 -11.857092 0.246650 0.000105 0.000870 2.067610 10.630565 -21.197455 0.000000 0.029521 0.240431 -4.221149 0.019084 0.517816 -0.145035 -0.000000 0.000000 8.517477 -75.460483 11.023661 -0.244526 0.000105 0.000870 0.920020 -6.486643 15.652557 0.000000 -0.000000 0.000000 -2.456013 0.000001 0.000039 0.000000 -0.000000 0.000000 -2.456050 -0.000000 0.000000 0.090837 0.000000 0.003896 2.100271 -0.089123 0.111713 0.016946 -0.000000 -0.323345 8.106875 0.242239 0.408451 -12.730157 -4.358267 5.419026 -17.763008 48.824088 36.835538 -0.090837 -0.000000 -0.003896 10.160512 -4.901253 -0.098121 -0.016998 0.000000 -0.324336 -6.962337 -2.182953 0.232751 -8.369605 2.569217 -3.367545 -12.964212 -44.632414 -36.349830 
-0.031699 -0.011875 0.670891 -0.000000 0.000000 1.089873 0.000000 0.000000 0.000000 -8.133357 -3.603043 -0.446800 9.924401 1.028287 8.405813 0.000000 0.029521 0.240431 12.555772 2.413763 3.068462 0.000000 0.003156 0.180812 2.314281 -0.000000 -0.000000 0.000000 0.029521 0.240431 -4.035083 0.017439 0.495037 0.145035 0.000000 0.000000 8.224781 82.553969 -9.404876 0.246650 0.000105 0.000870 1.986174 10.046388 -21.653759 0.000000 0.029521 0.240431 -3.981589 0.016980 0.488478 -0.145036 -0.000000 -0.000000 7.626217 -75.548101 9.862362 -0.244526 0.000105 0.000870 0.973163 -6.636231 16.207472 0.000000 -0.000000 0.000000 -2.462329 -0.000000 -0.000022 0.000000 -0.000000 0.000000 -2.462329 -0.000000 -0.000000 0.090837 -0.000000 0.003906 2.365641 0.176570 0.120359 0.016946 -0.000000 -0.323345 7.616782 0.127124 0.391326 -12.038470 -4.414000 5.732045 -18.651382 49.425226 37.460794 -0.090837 -0.000000 -0.003906 10.073797 -4.621831 -0.121989 -0.016998 -0.000000 -0.324336 -6.534886 -2.261697 0.213937 -8.061631 2.642591 -3.597523 -13.827920 -45.036300 -36.168724 
-0.029149 -0.012890 0.670855 -0.000000 0.000000 1.021232 -0.000000 0.000000 -0.000000 -8.160588 -3.628544 -0.450840 9.929469 0.994266 8.125417 0.000000 0.029521 0.240430 12.426436 2.445040 3.581915 -0.000000 0.003156 0.180812 2.183283 0.000001 0.000004 0.000000 0.029521 0.240431 -3.820276 0.015630 0.468642 0.145035 0.000000 0.000000 6.147898 82.622408 -7.035489 0.246650 0.000105 0.000870 1.921279 9.656714 -21.861895 0.000000 0.029521 0.240431 -3.766779 0.015197 0.462157 -0.145036 0.000000 0.000000 7.643625 -75.742932 9.850637 -0.244526 0.000105 0.000870 1.017600 -6.823932 16.465001 0.000000 -0.000000 0.000000 -2.473721 -0.000002 -0.000071 0.000000 -0.000000 0.000000 -2.473721 -0.000000 -0.000000 0.090836 -0.000000 0.003924 2.591789 0.389429 0.127066 0.016946 -0.000000 -0.323345 7.237798 0.150882 0.370304 -11.573309 -4.449740 5.943553 -19.225517 49.807894 37.887770 -0.090836 -0.000000 -0.003924 9.983448 -4.344649 -0.145169 -0.016998 -0.000000 -0.324336 -6.079080 -2.286033 0.197694 -7.930724 2.703034 -3.753669 -14.679617 -45.424112 -35.966564 
-0.026304 -0.013979 0.670896 -0.000000 0.000000 1.099205 0.000000 0.000000 0.000000 -8.209117 -3.517448 -0.438541 9.937885 0.931928 7.613030 0.000000 0.029521 0.240431 12.311570 2.425041 3.843324 -0.000000 0.003156 0.180812 2.087172 0.000002 0.000005 0.000000 0.029521 0.240431 -3.718047 0.014807 0.456126 0.145035 -0.000000 -0.000000 4.447952 82.736636 -5.094121 0.246650 0.000105 0.000870 1.868007 9.372777 -21.950017 0.000000 0.029521 0.240431 -3.664503 0.014381 0.449545 -0.145035 -0.000000 -0.000000 8.292137 -75.903100 10.650223 -0.244526 0.000105 0.000870 1.114658 -7.363586 16.616981 0.000000 0.000000 0.000000 -2.455712 -0.000001 -0.000060 0.000000 0.000000 0.000000 -2.455749 -0.000000 -0.000000 0.090837 0.000000 0.003896 2.805996 0.509540 0.134637 0.016946 0.000000 -0.323345 6.886411 0.356518 0.339940 -11.321920 -4.428031 5.984562 -19.369513 49.919124 38.060331 -0.090837 0.000000 -0.003896 9.880397 -4.119040 -0.163213 -0.016998 -0.000000 -0.324336 -5.574436 -2.166314 0.187081 -8.033831 2.780687 -3.876518 -15.534727 -45.826277 -35.811109 
